<?xml version="1.0" ?><!-- Uploaded to: SVG Repo, www.svgrepo.com, Generator: SVG Repo Mixer Tools -->
<svg fill="#000000" width="800px" height="800px" viewBox="0 0 512 512" data-name="Layer 1" id="Layer_1" xmlns="http://www.w3.org/2000/svg"><title/><path d="M321.85,250.69c-4-33.61-30.39-61-65.85-61-36,0-66.34,30.31-66.34,66.34S220,322.34,256,322.34c35.47,0,61.84-27.41,65.85-61a18.39,18.39,0,0,0,.49-5.32A18.71,18.71,0,0,0,321.85,250.69ZM225.12,256c0-39.95,59.88-39.6,61.76,0C285,295.55,225.12,296,225.12,256Z"/><path d="M433.3,238.27H395c-7.27-51.81-41.57-96.15-91.93-114.52a133.34,133.34,0,0,0-29.29-7v-38c0-22.82-35.46-22.86-35.46,0V117c-34.91,4.65-68,22.22-90.69,50.08a141.57,141.57,0,0,0-30.44,71.24H78.7c-22.82,0-22.86,35.46,0,35.46H117a137.24,137.24,0,0,0,18.61,54.45c22.57,37.45,60.88,61.14,102.69,66.63V433.3c0,22.82,35.46,22.86,35.46,0V395.07c2.92-.35,5.85-.75,8.76-1.28,60.25-10.79,104-61.36,112.44-120.06H433.3C456.12,273.73,456.16,238.27,433.3,238.27ZM291.38,354.83a106,106,0,0,1-115.8-31.39c-62-73.5,5.19-188.93,99.84-170.61,49.75,9.63,84.51,53,85.5,103.17C360.05,299.87,333.32,340,291.38,354.83Z"/></svg>