<!DOCTYPE svg PUBLIC "-//W3C//DTD SVG 1.1//EN" "http://www.w3.org/Graphics/SVG/1.1/DTD/svg11.dtd">
<!-- Uploaded to: SVG Repo, www.svgrepo.com, Transformed by: SVG Repo Mixer Tools -->
<svg height="800px" width="800px" version="1.1" id="Layer_1" xmlns="http://www.w3.org/2000/svg" xmlns:xlink="http://www.w3.org/1999/xlink" viewBox="-51.2 -51.2 614.40 614.40" xml:space="preserve" fill="#000000" stroke="#000000" stroke-width="0.00512" transform="matrix(1, 0, 0, 1, 0, 0)rotate(0)">
<g id="SVGRepo_bgCarrier" stroke-width="0" transform="translate(7.680000000000007,7.680000000000007), scale(0.97)">
<path transform="translate(-51.2, -51.2), scale(38.4)" fill="#f9f06b" d="M9.166.33a2.25 2.25 0 00-2.332 0l-5.25 3.182A2.25 2.25 0 00.5 5.436v5.128a2.25 2.25 0 001.084 1.924l5.25 3.182a2.25 2.25 0 002.332 0l5.25-3.182a2.25 2.25 0 001.084-1.924V5.436a2.25 2.25 0 00-1.084-1.924L9.166.33z" strokewidth="0"/>
</g>
<g id="SVGRepo_tracerCarrier" stroke-linecap="round" stroke-linejoin="round" stroke="#CCCCCC" stroke-width="12.288"> <path style="fill:#FFEAB2;" d="M343.209,0h-33.758l67.516,479.974l33.758-1.732V67.516C410.725,30.228,380.497,0,343.209,0z"/> <path style="fill:#FFF3D4;" d="M309.451,0H67.516C30.225,0,0,30.224,0,67.516v90.022l33.758-14.73l33.758-75.292l33.758,89.211 l0.066,290.363c0,4.654,3.497,57.502,69.233,57.502l206.393-24.618V67.516C376.967,30.228,346.739,0,309.451,0z"/> <path style="fill:#FFD159;" d="M478.242,386.071L410.725,512h33.758C481.772,512,512,481.772,512,444.484v-73.143L478.242,386.071z"/> <g> <path style="fill:#FFE08F;" d="M101.341,447.09c-0.034-0.865-0.066-1.732-0.066-2.606 C101.275,445.358,101.297,446.227,101.341,447.09z"/> <path style="fill:#FFE08F;" d="M460.42,393.846l-51.58-22.505l-51.572,22.505l-51.575-22.505l-51.572,22.505l-51.57-22.505v73.143 c0,27.966-22.671,50.637-50.637,50.637c-27.094,0-49.215-21.273-50.571-48.031c1.372,36.079,31.036,64.91,67.45,64.91h241.934 c37.288,0,67.517-30.228,67.517-67.516v-58.413L460.42,393.846z"/> </g> <path style="fill:#FFD159;" d="M101.275,67.516v89.212l-49.703-21.695l-17.813,7.776c0-40.544,0-70.15,0-75.292 c0-18.646,15.112-33.758,33.758-33.758S101.275,48.871,101.275,67.516z"/> <path style="fill:#E26142;" d="M312.264,188.484c-4.662,0-8.44-3.778-8.44-8.44v-61.21l-14.419,11.536 c-3.083,2.465-7.462,2.465-10.545,0L256,112.082l-22.859,18.288c-3.083,2.465-7.462,2.465-10.545,0l-14.42-11.536v61.21 c0,4.662-3.778,8.44-8.44,8.44s-8.44-3.778-8.44-8.44v-78.769c0-3.244,1.859-6.201,4.784-7.607c2.922-1.407,6.394-1.01,8.929,1.016 l22.859,18.288l22.859-18.288c3.083-2.465,7.462-2.465,10.545,0l22.859,18.288l22.859-18.288c2.535-2.027,6.008-2.422,8.929-1.016 c2.926,1.405,4.785,4.363,4.785,7.607v78.769C320.703,184.706,316.926,188.484,312.264,188.484z"/> <g> <path style="fill:#AB5D4A;" d="M343.209,301.011H168.791c-4.662,0-8.44-3.778-8.44-8.44s3.778-8.44,8.44-8.44h174.418 c4.662,0,8.44,3.778,8.44,8.44S347.871,301.011,343.209,301.011z"/> <path style="fill:#AB5D4A;" d="M343.209,256H168.791c-4.662,0-8.44-3.778-8.44-8.44s3.778-8.44,8.44-8.44h174.418 c4.662,0,8.44,3.778,8.44,8.44S347.871,256,343.209,256z"/> </g> <path style="fill:#E26142;" d="M323.517,188.484H188.484c-4.662,0-8.44-3.778-8.44-8.44s3.778-8.44,8.44-8.44h135.033 c4.662,0,8.44,3.778,8.44,8.44S328.179,188.484,323.517,188.484z"/> </g>
<g id="SVGRepo_iconCarrier"> <path style="fill:#FFEAB2;" d="M343.209,0h-33.758l67.516,479.974l33.758-1.732V67.516C410.725,30.228,380.497,0,343.209,0z"/> <path style="fill:#FFF3D4;" d="M309.451,0H67.516C30.225,0,0,30.224,0,67.516v90.022l33.758-14.73l33.758-75.292l33.758,89.211 l0.066,290.363c0,4.654,3.497,57.502,69.233,57.502l206.393-24.618V67.516C376.967,30.228,346.739,0,309.451,0z"/> <path style="fill:#FFD159;" d="M478.242,386.071L410.725,512h33.758C481.772,512,512,481.772,512,444.484v-73.143L478.242,386.071z"/> <g> <path style="fill:#FFE08F;" d="M101.341,447.09c-0.034-0.865-0.066-1.732-0.066-2.606 C101.275,445.358,101.297,446.227,101.341,447.09z"/> <path style="fill:#FFE08F;" d="M460.42,393.846l-51.58-22.505l-51.572,22.505l-51.575-22.505l-51.572,22.505l-51.57-22.505v73.143 c0,27.966-22.671,50.637-50.637,50.637c-27.094,0-49.215-21.273-50.571-48.031c1.372,36.079,31.036,64.91,67.45,64.91h241.934 c37.288,0,67.517-30.228,67.517-67.516v-58.413L460.42,393.846z"/> </g> <path style="fill:#FFD159;" d="M101.275,67.516v89.212l-49.703-21.695l-17.813,7.776c0-40.544,0-70.15,0-75.292 c0-18.646,15.112-33.758,33.758-33.758S101.275,48.871,101.275,67.516z"/> <path style="fill:#E26142;" d="M312.264,188.484c-4.662,0-8.44-3.778-8.44-8.44v-61.21l-14.419,11.536 c-3.083,2.465-7.462,2.465-10.545,0L256,112.082l-22.859,18.288c-3.083,2.465-7.462,2.465-10.545,0l-14.42-11.536v61.21 c0,4.662-3.778,8.44-8.44,8.44s-8.44-3.778-8.44-8.44v-78.769c0-3.244,1.859-6.201,4.784-7.607c2.922-1.407,6.394-1.01,8.929,1.016 l22.859,18.288l22.859-18.288c3.083-2.465,7.462-2.465,10.545,0l22.859,18.288l22.859-18.288c2.535-2.027,6.008-2.422,8.929-1.016 c2.926,1.405,4.785,4.363,4.785,7.607v78.769C320.703,184.706,316.926,188.484,312.264,188.484z"/> <g> <path style="fill:#AB5D4A;" d="M343.209,301.011H168.791c-4.662,0-8.44-3.778-8.44-8.44s3.778-8.44,8.44-8.44h174.418 c4.662,0,8.44,3.778,8.44,8.44S347.871,301.011,343.209,301.011z"/> <path style="fill:#AB5D4A;" d="M343.209,256H168.791c-4.662,0-8.44-3.778-8.44-8.44s3.778-8.44,8.44-8.44h174.418 c4.662,0,8.44,3.778,8.44,8.44S347.871,256,343.209,256z"/> </g> <path style="fill:#E26142;" d="M323.517,188.484H188.484c-4.662,0-8.44-3.778-8.44-8.44s3.778-8.44,8.44-8.44h135.033 c4.662,0,8.44,3.778,8.44,8.44S328.179,188.484,323.517,188.484z"/> </g>
</svg>